<svg xmlns="http://www.w3.org/2000/svg" width="191.372" height="51.861" viewBox="0 0 191.372 51.861">
  <defs>
    <style>

    </style>
  </defs>
  <g id="Group_91" data-name="Group 91" transform="translate(-404.922 -666.999)">
    <g id="Group_89" data-name="Group 89" transform="translate(404.922 686.858)">
    <g id="Group_76" data-name="Group 76" transform="translate(123.266 9.657)">
      <path id="Path_99" data-name="Path 99" class="cls-1" d="M532.23,702.281a2.719,2.719,0,0,0-.029.382v.647H521.958a5,5,0,0,0,.281,1.678,3.292,3.292,0,0,0,.838,1.325,4.209,4.209,0,0,0,.957.661,2.82,2.82,0,0,0,1.309.28,4.492,4.492,0,0,0,1.31-.161,2.26,2.26,0,0,0,.927-.574,2.842,2.842,0,0,0,.737-1.295h3.532a4.289,4.289,0,0,1-.456,1.486,6.677,6.677,0,0,1-.84,1.338,5.5,5.5,0,0,1-2.325,1.648,8.069,8.069,0,0,1-2.824.5,6.768,6.768,0,0,1-2.753-.516,7.012,7.012,0,0,1-3.826-4.046,9.468,9.468,0,0,1-.6-3.445,10.383,10.383,0,0,1,.546-3.428,6.947,6.947,0,0,1,1.662-2.694,6.359,6.359,0,0,1,2.075-1.412,7.014,7.014,0,0,1,2.81-.53,7.376,7.376,0,0,1,3.179.692,5.791,5.791,0,0,1,2.413,2.134,6.732,6.732,0,0,1,1.089,2.575,15.471,15.471,0,0,1,.235,2.753Zm-3.678-1.649a3.93,3.93,0,0,0-.942-2.678,2.657,2.657,0,0,0-.956-.648,3.622,3.622,0,0,0-1.369-.235,3.322,3.322,0,0,0-1.5.324,3.046,3.046,0,0,0-1.06.853,3.175,3.175,0,0,0-.588,1.06,5.085,5.085,0,0,0-.207,1.324Z" transform="translate(-518.22 -694.128)"></path>
    </g>
    <g id="Group_77" data-name="Group 77" transform="translate(139.837 9.657)">
      <path id="Path_100" data-name="Path 100" class="cls-1" d="M542.811,709.816v-9.389a3.689,3.689,0,0,0-.53-2.119,2.28,2.28,0,0,0-2-.765,2.429,2.429,0,0,0-1.619.545,3.852,3.852,0,0,0-1.03,1.4,5.545,5.545,0,0,0-.442,1.988q-.059,1.133-.058,2.1v6.24h-3.68v-15.3h3.091l.264,1.971a4.123,4.123,0,0,1,1.928-1.78,6.108,6.108,0,0,1,2.575-.574,5.487,5.487,0,0,1,2.192.412,4.677,4.677,0,0,1,1.619,1.133,4.922,4.922,0,0,1,1.015,1.736,6.622,6.622,0,0,1,.354,2.193v10.213Z" transform="translate(-533.451 -694.128)"></path>
    </g>
    <g id="Group_78" data-name="Group 78" transform="translate(154.435 5.242)">
      <path id="Path_101" data-name="Path 101" class="cls-1" d="M557.434,709.966a12.488,12.488,0,0,1-3.15.412,4.489,4.489,0,0,1-3.473-1.25,4.927,4.927,0,0,1-1.147-3.459V697.9h-2.8v-3.031h2.8v-3.885l3.678-.913v4.8H557.2V697.9h-3.856v7.446a1.72,1.72,0,0,0,.412,1.282,1.812,1.812,0,0,0,1.295.4c.393,0,.759-.009,1.1-.029s.769-.059,1.28-.117v3.09Z" transform="translate(-546.869 -690.07)"></path>
    </g>
    <g id="Group_79" data-name="Group 79" transform="translate(165.883 9.657)">
      <path id="Path_102" data-name="Path 102" class="cls-1" d="M571.4,702.281a2.71,2.71,0,0,0-.029.382v.647H561.129a4.97,4.97,0,0,0,.281,1.678,3.3,3.3,0,0,0,.838,1.325,4.252,4.252,0,0,0,.956.661,2.834,2.834,0,0,0,1.31.28,4.505,4.505,0,0,0,1.311-.161,2.261,2.261,0,0,0,.927-.574,2.841,2.841,0,0,0,.735-1.295h3.532a4.264,4.264,0,0,1-.456,1.486,6.631,6.631,0,0,1-.839,1.338A5.5,5.5,0,0,1,567.4,709.7a8.064,8.064,0,0,1-2.824.5,6.764,6.764,0,0,1-2.753-.516,7.013,7.013,0,0,1-3.826-4.046,9.469,9.469,0,0,1-.6-3.445,10.41,10.41,0,0,1,.545-3.428,6.975,6.975,0,0,1,1.664-2.694,6.37,6.37,0,0,1,2.075-1.412,7.015,7.015,0,0,1,2.811-.53,7.379,7.379,0,0,1,3.178.692,5.792,5.792,0,0,1,2.413,2.134,6.716,6.716,0,0,1,1.089,2.575,15.578,15.578,0,0,1,.236,2.753Zm-3.678-1.649a3.936,3.936,0,0,0-.943-2.678,2.682,2.682,0,0,0-.955-.648,3.629,3.629,0,0,0-1.369-.235,3.324,3.324,0,0,0-1.5.324,3.032,3.032,0,0,0-1.059.853,3.16,3.16,0,0,0-.589,1.06,5.039,5.039,0,0,0-.207,1.324Z" transform="translate(-557.391 -694.128)"></path>
    </g>
    <g id="Group_80" data-name="Group 80" transform="translate(182.454 9.834)">
      <path id="Path_103" data-name="Path 103" class="cls-1" d="M581.54,697.911a5.993,5.993,0,0,0-1.265-.147A3.562,3.562,0,0,0,577.331,699a4.757,4.757,0,0,0-1,3.09V709.8h-3.709V694.5h3.12l.324,2.3a3.464,3.464,0,0,1,1.75-1.914,5.868,5.868,0,0,1,2.575-.587,7.606,7.606,0,0,1,1.148.088v3.532Z" transform="translate(-572.622 -694.291)"></path>
    </g>
    <g id="Group_88" data-name="Group 88">
      <g id="Group_81" data-name="Group 81" transform="translate(108.522 9.657)">
      <path id="Path_104" data-name="Path 104" class="cls-1" d="M518.089,704.4a6.949,6.949,0,0,1-.354,1.779,5.175,5.175,0,0,1-.824,1.546,6.614,6.614,0,0,1-5.24,2.413,6.706,6.706,0,0,1-3.149-.721,6.843,6.843,0,0,1-2.178-1.692,7.315,7.315,0,0,1-1.265-2.5,11.788,11.788,0,0,1,0-6.181,7.322,7.322,0,0,1,1.265-2.5,6.874,6.874,0,0,1,2.178-1.692,6.706,6.706,0,0,1,3.149-.721,6.564,6.564,0,0,1,3.106.706,6.659,6.659,0,0,1,2.134,1.707,5.2,5.2,0,0,1,.824,1.546,6.974,6.974,0,0,1,.354,1.78h-3.621a3.17,3.17,0,0,0-.146-.765,3.415,3.415,0,0,0-.295-.647,2.488,2.488,0,0,0-.913-.824,3.361,3.361,0,0,0-2.751-.06,3.083,3.083,0,0,0-.928.677,3.394,3.394,0,0,0-.853,1.766,12.449,12.449,0,0,0-.176,2.12,12.177,12.177,0,0,0,.176,2.1,3.383,3.383,0,0,0,.853,1.751,3.3,3.3,0,0,0,.928.692,2.835,2.835,0,0,0,1.309.28,2.95,2.95,0,0,0,1.443-.324,2.5,2.5,0,0,0,.913-.824,3.415,3.415,0,0,0,.295-.647,3.181,3.181,0,0,0,.146-.765Z" transform="translate(-504.668 -694.128)"></path>
      </g>
      <g id="Group_87" data-name="Group 87">
      <g id="Group_82" data-name="Group 82" transform="translate(0 12.696)">
        <path id="Path_105" data-name="Path 105" class="cls-1" d="M406.637,697.756a2.677,2.677,0,0,0-.956-.648,3.144,3.144,0,0,0-.758-.187v3.514h2.658a3.931,3.931,0,0,0-.943-2.679Z" transform="translate(-404.922 -696.921)"></path>
      </g>
      <g id="Group_83" data-name="Group 83" transform="translate(98.353 12.704)">
        <path id="Path_106" data-name="Path 106" class="cls-1" d="M496.116,698.05a3.179,3.179,0,0,0-.589,1.06,5.092,5.092,0,0,0-.206,1.325h2.7v-3.505a3.043,3.043,0,0,0-1.907,1.121Z" transform="translate(-495.322 -696.929)"></path>
      </g>
      <g id="Group_84" data-name="Group 84" transform="translate(51.566 12.647)">
        <path id="Path_107" data-name="Path 107" class="cls-1" d="M457.043,697.112a3.6,3.6,0,0,0-1.369-.236,3.314,3.314,0,0,0-1.5.325,3.045,3.045,0,0,0-1.06.853,3.161,3.161,0,0,0-.589,1.06,5.14,5.14,0,0,0-.206,1.325h6.625A3.931,3.931,0,0,0,458,697.76a2.653,2.653,0,0,0-.957-.648Z" transform="translate(-452.318 -696.876)"></path>
      </g>
      <g id="Group_85" data-name="Group 85">
        <path id="Path_108" data-name="Path 108" class="cls-1" d="M501.921,709.147a7.419,7.419,0,0,1-1.753-2.68,9.52,9.52,0,0,1-.6-3.446,10.391,10.391,0,0,1,.546-3.429,6.965,6.965,0,0,1,1.663-2.695,6.385,6.385,0,0,1,2.077-1.413,6.6,6.6,0,0,1,2.127-.5v-.153a9.579,9.579,0,0,0-9.579-9.579H404.922v9.732a7.3,7.3,0,0,1,2.6.663,5.805,5.805,0,0,1,2.415,2.135,6.737,6.737,0,0,1,1.089,2.576,15.582,15.582,0,0,1,.236,2.753,2.751,2.751,0,0,0-.029.384v.646h-6.309v3.916a3.734,3.734,0,0,0,.758-.131,2.246,2.246,0,0,0,.927-.574,2.839,2.839,0,0,0,.737-1.295h3.534a4.26,4.26,0,0,1-.457,1.486,6.644,6.644,0,0,1-.839,1.339,5.509,5.509,0,0,1-2.326,1.649,8.022,8.022,0,0,1-2.334.479h0a6.243,6.243,0,0,0,6.244,6.244h94.811V711a6.224,6.224,0,0,1-1.98-.483,7.382,7.382,0,0,1-2.076-1.369Zm-73.244-2.179a6.214,6.214,0,0,1-1.252,1.827,6.826,6.826,0,0,1-2.929,1.721,12.724,12.724,0,0,1-3.666.517,11.573,11.573,0,0,1-3.313-.487,7.464,7.464,0,0,1-2.929-1.664,6.938,6.938,0,0,1-1.56-2.105,6.127,6.127,0,0,1-.62-2.753h3.887a3.341,3.341,0,0,0,.309,1.429,3.894,3.894,0,0,0,.782,1.133,3.313,3.313,0,0,0,1.633.9,8.329,8.329,0,0,0,3.932-.029,3.2,3.2,0,0,0,1.559-.869,4.129,4.129,0,0,0,.59-.809,2.484,2.484,0,0,0,.235-1.192,2.034,2.034,0,0,0-.751-1.723,3.964,3.964,0,0,0-1.722-.75,19.3,19.3,0,0,0-2.327-.3c-.843-.058-1.608-.147-2.3-.263a7.874,7.874,0,0,1-2.045-.619,5.748,5.748,0,0,1-1.68-1.163,5.381,5.381,0,0,1-1.148-1.737,5.925,5.925,0,0,1-.426-2.311,5.117,5.117,0,0,1,.5-2.267,6.78,6.78,0,0,1,1.325-1.855,7.134,7.134,0,0,1,2.65-1.62,10.446,10.446,0,0,1,6.7-.073,6.9,6.9,0,0,1,2.607,1.517,7.317,7.317,0,0,1,1.517,2,5.572,5.572,0,0,1,.6,2.444h-3.887a2.987,2.987,0,0,0-.28-1.1,3.649,3.649,0,0,0-.632-.959,3.307,3.307,0,0,0-1.414-.824,5.756,5.756,0,0,0-1.766-.295,7.3,7.3,0,0,0-1.81.236,3.236,3.236,0,0,0-1.576.913,2.916,2.916,0,0,0-.515.765,2.361,2.361,0,0,0-.193,1,2.042,2.042,0,0,0,.59,1.576,2.831,2.831,0,0,0,1.532.691q1,.148,2.252.266c.833.079,1.594.166,2.282.265a8.785,8.785,0,0,1,2.223.632,6.193,6.193,0,0,1,1.827,1.208,5.5,5.5,0,0,1,1.236,1.81,6.645,6.645,0,0,1-.029,4.918Zm5.726-1.9a3.4,3.4,0,0,0,.854,1.753,3.333,3.333,0,0,0,.928.692,2.827,2.827,0,0,0,1.31.28,2.947,2.947,0,0,0,1.443-.323,2.5,2.5,0,0,0,.914-.825,3.349,3.349,0,0,0,.295-.65,3.147,3.147,0,0,0,.146-.765h3.623a6.99,6.99,0,0,1-.354,1.781,5.221,5.221,0,0,1-.825,1.547,6.614,6.614,0,0,1-5.242,2.414,6.711,6.711,0,0,1-3.15-.721,6.881,6.881,0,0,1-2.18-1.693,7.339,7.339,0,0,1-1.265-2.5,11.8,11.8,0,0,1,0-6.184,7.344,7.344,0,0,1,1.265-2.5,6.882,6.882,0,0,1,2.18-1.693,6.709,6.709,0,0,1,3.15-.721,6.555,6.555,0,0,1,3.107.707,6.651,6.651,0,0,1,2.135,1.707,5.249,5.249,0,0,1,.825,1.545,7.044,7.044,0,0,1,.354,1.783h-3.623a3.168,3.168,0,0,0-.146-.766,3.391,3.391,0,0,0-.295-.647,2.508,2.508,0,0,0-.914-.826,3.374,3.374,0,0,0-2.753-.058,3.111,3.111,0,0,0-.928.677,3.406,3.406,0,0,0-.854,1.767,12.667,12.667,0,0,0-.176,2.119,12.4,12.4,0,0,0,.176,2.105Zm15.7,5.58h-3.741V695.336H450.1v15.312Zm.087-17.432h-3.945v-3.8h3.945v3.8Zm16.576,10.277v.646H456.517a5.025,5.025,0,0,0,.28,1.679,3.28,3.28,0,0,0,.839,1.325,4.166,4.166,0,0,0,.957.662,2.828,2.828,0,0,0,1.311.28,4.449,4.449,0,0,0,1.309-.161,2.274,2.274,0,0,0,.929-.574,2.845,2.845,0,0,0,.734-1.295h3.534a4.28,4.28,0,0,1-.456,1.486,6.694,6.694,0,0,1-.84,1.339,5.5,5.5,0,0,1-2.326,1.649,8.08,8.08,0,0,1-2.827.5,6.75,6.75,0,0,1-2.753-.517,7.011,7.011,0,0,1-3.829-4.048,9.5,9.5,0,0,1-.6-3.446,10.419,10.419,0,0,1,.545-3.429,6.992,6.992,0,0,1,1.664-2.695,6.384,6.384,0,0,1,2.077-1.413,7,7,0,0,1,2.81-.53,7.384,7.384,0,0,1,3.181.692,5.8,5.8,0,0,1,2.414,2.135,6.758,6.758,0,0,1,1.09,2.576,15.587,15.587,0,0,1,.235,2.753,2.762,2.762,0,0,0-.03.384Zm15.636,7.155h-3.682v-9.393a3.68,3.68,0,0,0-.53-2.12,2.277,2.277,0,0,0-2-.765,2.44,2.44,0,0,0-1.621.543,3.864,3.864,0,0,0-1.029,1.4,5.508,5.508,0,0,0-.442,1.989q-.06,1.133-.059,2.105v6.242h-3.682V695.336h3.093l.263,1.974a4.138,4.138,0,0,1,1.929-1.781,6.1,6.1,0,0,1,2.577-.574,5.489,5.489,0,0,1,2.193.412,4.705,4.705,0,0,1,1.62,1.133,4.931,4.931,0,0,1,1.014,1.739,6.614,6.614,0,0,1,.355,2.192v10.218Zm6.331-5.58a3.3,3.3,0,0,0,1.78,2.445,2.838,2.838,0,0,0,1.311.28,2.957,2.957,0,0,0,1.444-.323,2.511,2.511,0,0,0,.913-.825,3.286,3.286,0,0,0,.294-.65,3.1,3.1,0,0,0,.147-.765h3.622a6.9,6.9,0,0,1-.354,1.781,5.193,5.193,0,0,1-.824,1.547,6.615,6.615,0,0,1-5.242,2.414,6.715,6.715,0,0,1-3.151-.721,6.845,6.845,0,0,1-2.178-1.693,7.324,7.324,0,0,1-1.266-2.5,11.8,11.8,0,0,1,0-6.184,7.329,7.329,0,0,1,1.266-2.5,6.847,6.847,0,0,1,2.178-1.693,6.714,6.714,0,0,1,3.151-.721,6.555,6.555,0,0,1,3.107.707,6.639,6.639,0,0,1,2.135,1.707,5.221,5.221,0,0,1,.824,1.545,6.951,6.951,0,0,1,.354,1.783h-3.622a3.117,3.117,0,0,0-.147-.766,3.326,3.326,0,0,0-.294-.647,2.522,2.522,0,0,0-.913-.826,3.38,3.38,0,0,0-2.755-.058,3.121,3.121,0,0,0-.927.677,3.388,3.388,0,0,0-.853,1.767,12.552,12.552,0,0,0-.177,2.119,12.283,12.283,0,0,0,.177,2.105Z" transform="translate(-404.922 -685.252)"></path>
      </g>
      <g id="Group_86" data-name="Group 86" transform="translate(98.383 18.888)">
        <path id="Path_109" data-name="Path 109" class="cls-1" d="M495.629,704.292a3.28,3.28,0,0,0,.839,1.325,4.164,4.164,0,0,0,.957.663,2.41,2.41,0,0,0,.6.209v-3.875h-2.672a5.025,5.025,0,0,0,.28,1.679Z" transform="translate(-495.349 -702.613)"></path>
      </g>
      </g>
    </g>
    </g>
    <g id="Group_90" data-name="Group 90" transform="translate(405.058 666.999)">
    <path id="Path_110" data-name="Path 110" class="cls-1" d="M413.529,679.509h-2.507v-5.367a2.569,2.569,0,0,0-.354-1.491,1.285,1.285,0,0,0-1.126-.5,1.693,1.693,0,0,0-1.52.7,4.36,4.36,0,0,0-.469,2.33v4.323h-2.507v-9.188h1.916l.336,1.175h.14a2.64,2.64,0,0,1,1.154-1.006,3.929,3.929,0,0,1,1.672-.342,3.215,3.215,0,0,1,2.433.867,3.484,3.484,0,0,1,.83,2.5Z" transform="translate(-405.047 -666.722)"></path>
    <path id="Path_111" data-name="Path 111" class="cls-1" d="M419.464,679.673A4.736,4.736,0,0,1,416,678.448a4.632,4.632,0,0,1-1.25-3.467,5.1,5.1,0,0,1,1.155-3.571,4.109,4.109,0,0,1,3.192-1.262,4.043,4.043,0,0,1,3.032,1.11,4.2,4.2,0,0,1,1.085,3.066v1.216h-5.925a2.409,2.409,0,0,0,.633,1.668,2.227,2.227,0,0,0,1.659.6,6.939,6.939,0,0,0,1.57-.172,7.849,7.849,0,0,0,1.545-.552v1.94a5.851,5.851,0,0,1-1.4.49A8.874,8.874,0,0,1,419.464,679.673Zm-.354-7.741a1.589,1.589,0,0,0-1.249.5,2.338,2.338,0,0,0-.518,1.434h3.517a2.089,2.089,0,0,0-.485-1.434A1.639,1.639,0,0,0,419.111,671.932Z" transform="translate(-404.194 -666.722)"></path>
    <path id="Path_112" data-name="Path 112" class="cls-1" d="M428.392,677.82a5.443,5.443,0,0,0,1.579-.287V679.4a5.642,5.642,0,0,1-2.3.419,2.814,2.814,0,0,1-2.19-.76,3.3,3.3,0,0,1-.687-2.28v-4.429h-1.2v-1.06l1.381-.839.724-1.94h1.6v1.956h2.572v1.882H427.3v4.429a.976.976,0,0,0,.3.789A1.182,1.182,0,0,0,428.392,677.82Z" transform="translate(-403.415 -666.866)"></path>
    <path id="Path_113" data-name="Path 113" class="cls-1" d="M439.69,679.786h-2.507v-5.367q0-1.988-1.48-1.988a1.682,1.682,0,0,0-1.52.714,4.372,4.372,0,0,0-.469,2.318v4.323h-2.507V667h2.507v2.6q0,.305-.058,1.431l-.057.739h.131a2.907,2.907,0,0,1,2.663-1.348,3.257,3.257,0,0,1,2.457.871,3.462,3.462,0,0,1,.839,2.5Z" transform="translate(-402.745 -666.999)"></path>
    <path id="Path_114" data-name="Path 114" class="cls-1" d="M445.625,679.673a4.736,4.736,0,0,1-3.467-1.225,4.632,4.632,0,0,1-1.25-3.467,5.1,5.1,0,0,1,1.155-3.571,4.109,4.109,0,0,1,3.192-1.262,4.043,4.043,0,0,1,3.032,1.11,4.2,4.2,0,0,1,1.085,3.066v1.216h-5.925a2.414,2.414,0,0,0,.633,1.668,2.23,2.23,0,0,0,1.66.6,6.936,6.936,0,0,0,1.569-.172,7.825,7.825,0,0,0,1.545-.552v1.94a5.835,5.835,0,0,1-1.4.49A8.873,8.873,0,0,1,445.625,679.673Zm-.354-7.741a1.589,1.589,0,0,0-1.249.5,2.337,2.337,0,0,0-.518,1.434h3.517a2.089,2.089,0,0,0-.484-1.434A1.643,1.643,0,0,0,445.272,671.932Z" transform="translate(-401.892 -666.722)"></path>
    <path id="Path_115" data-name="Path 115" class="cls-1" d="M455.736,670.148a4.079,4.079,0,0,1,.848.074l-.189,2.351a2.889,2.889,0,0,0-.74-.083,2.66,2.66,0,0,0-1.87.617,2.229,2.229,0,0,0-.669,1.726v4.676h-2.507v-9.188h1.9l.37,1.545H453a3.466,3.466,0,0,1,1.154-1.245A2.847,2.847,0,0,1,455.736,670.148Z" transform="translate(-401.039 -666.722)"></path>
    <path id="Path_116" data-name="Path 116" class="cls-1" d="M460.186,679.786h-2.507V667h2.507Z" transform="translate(-400.416 -666.999)"></path>
    <path id="Path_117" data-name="Path 117" class="cls-1" d="M468.331,679.51l-.485-1.249h-.065a3.708,3.708,0,0,1-1.3,1.105,4.2,4.2,0,0,1-1.746.308,2.826,2.826,0,0,1-2.083-.756,2.907,2.907,0,0,1-.759-2.153,2.426,2.426,0,0,1,1.023-2.157A5.931,5.931,0,0,1,466,673.84l1.594-.049v-.4a1.25,1.25,0,0,0-1.43-1.4,6.511,6.511,0,0,0-2.588.666l-.831-1.693a7.482,7.482,0,0,1,3.517-.83,4.376,4.376,0,0,1,2.835.806,2.974,2.974,0,0,1,.987,2.449v6.122Zm-.74-4.257-.969.034a3.1,3.1,0,0,0-1.628.394,1.24,1.24,0,0,0-.534,1.1q0,1.061,1.216,1.061a1.925,1.925,0,0,0,1.393-.5,1.76,1.76,0,0,0,.522-1.332Z" transform="translate(-400.046 -666.723)"></path>
    <path id="Path_118" data-name="Path 118" class="cls-1" d="M480.318,679.509h-2.506v-5.367a2.569,2.569,0,0,0-.355-1.491,1.283,1.283,0,0,0-1.125-.5,1.694,1.694,0,0,0-1.521.7,4.362,4.362,0,0,0-.468,2.33v4.323h-2.507v-9.188h1.915l.337,1.175h.139a2.652,2.652,0,0,1,1.154-1.006,3.936,3.936,0,0,1,1.672-.342,3.214,3.214,0,0,1,2.433.867,3.48,3.48,0,0,1,.83,2.5Z" transform="translate(-399.171 -666.722)"></path>
    <path id="Path_119" data-name="Path 119" class="cls-1" d="M485,679.95a2.983,2.983,0,0,1-2.543-1.257,7.048,7.048,0,0,1,.015-7.007,3.058,3.058,0,0,1,2.594-1.262,3,3,0,0,1,2.646,1.348h.082a10.319,10.319,0,0,1-.188-1.832V667h2.514v12.787H488.2l-.485-1.191h-.107A2.868,2.868,0,0,1,485,679.95Zm.88-2a1.7,1.7,0,0,0,1.409-.558,3.248,3.248,0,0,0,.489-1.9v-.271a3.753,3.753,0,0,0-.456-2.12,1.693,1.693,0,0,0-1.483-.642,1.475,1.475,0,0,0-1.3.712,3.8,3.8,0,0,0-.463,2.067,3.592,3.592,0,0,0,.468,2.033A1.53,1.53,0,0,0,485.885,677.953Z" transform="translate(-398.317 -666.999)"></path>
    <path id="Path_120" data-name="Path 120" class="cls-1" d="M498.341,676.78a2.529,2.529,0,0,1-.982,2.153,4.852,4.852,0,0,1-2.938.74,9.231,9.231,0,0,1-1.709-.136,6.47,6.47,0,0,1-1.323-.4v-2.072a8.691,8.691,0,0,0,1.573.552,6.435,6.435,0,0,0,1.541.222q1.364,0,1.364-.789a.656.656,0,0,0-.181-.481,2.561,2.561,0,0,0-.625-.419q-.444-.235-1.184-.547a7.487,7.487,0,0,1-1.557-.822,2.3,2.3,0,0,1-.722-.867,2.856,2.856,0,0,1-.226-1.2,2.183,2.183,0,0,1,.949-1.894,4.627,4.627,0,0,1,2.692-.67,7.637,7.637,0,0,1,3.229.724l-.755,1.808q-.692-.3-1.29-.485a4.084,4.084,0,0,0-1.225-.189c-.74,0-1.109.2-1.109.6a.7.7,0,0,0,.357.583,9.763,9.763,0,0,0,1.566.732,7.279,7.279,0,0,1,1.578.813,2.4,2.4,0,0,1,.74.872A2.675,2.675,0,0,1,498.341,676.78Z" transform="translate(-397.452 -666.722)"></path>
    </g>
  </g>
  </svg>
