<svg width="122" height="55" viewBox="0 0 122 55" fill="none" xmlns="http://www.w3.org/2000/svg">
    <path d="M78.1952 20.3882H75.0723V35.1588H78.1952V20.3882Z" fill="#1C1C28"/>
    <path d="M96.0204 20.3882H92.9119V29.6775H92.7821L86.4065 20.3882H83.6659V35.1588H86.7888V25.8622H86.8969L93.323 35.1588H96.0204V20.3882Z" fill="#1C1C28"/>
    <path d="M104.625 20.3882H101.502V35.1588H104.625V20.3882Z" fill="#1C1C28"/>
    <path d="M109.533 22.9629H114.055V35.1588H117.142V22.9629H121.664V20.3882H109.533V22.9629Z" fill="#1C1C28"/>
    <path d="M0.572754 4.60449C0.572754 2.39535 2.36362 0.604492 4.57275 0.604492H50.3429C52.5521 0.604492 54.3429 2.39535 54.3429 4.60449V50.3747C54.3429 52.5838 52.5521 54.3747 50.3429 54.3747H4.57276C2.36362 54.3747 0.572754 52.5838 0.572754 50.3747V4.60449Z" fill="#2A7FFF"/>
    <path d="M13.877 19.0208C12.3167 19.0208 11.0888 19.7756 10.1934 21.285C9.29793 22.7945 9.25571 24.8333 9.25571 27.4602C9.25571 30.0676 9.26401 32.1652 10.0916 33.6943C10.9328 35.2037 12.1878 35.9585 13.8566 35.9585C16.4633 35.9585 17.5703 33.6902 17.5703 31.1596H19.7664C19.7664 34.771 17.2838 38.2815 13.5921 38.2815C12.1132 38.2815 10.8785 37.8405 9.88812 36.9583C8.89769 36.0761 8.15147 34.8215 7.64948 33.1944C7.16104 31.5672 7.1543 29.6559 7.1543 27.4602C7.1543 25.343 7.1814 23.4807 7.71053 21.8732C8.25323 20.246 9.04693 18.9816 10.0916 18.0798C11.1363 17.1584 12.4049 16.6978 13.8973 16.6978C15.4305 16.6978 19.7664 16.9918 19.7664 23.5199H17.5703C17.5703 21.0053 16.5003 19.0208 13.877 19.0208Z" fill="#F7F7FA"/>
    <path d="M39.7077 37.9875H36.8761V16.9918H47.9962V19.3149H39.7077V26.7545H46.6096V29.0776H39.7077V37.9875Z" fill="#F7F7FA"/>
    <path d="M26.3387 37.9875H23.5071V16.9918H34.6272V19.3149H26.3387V26.7545H33.2405V29.0776H26.3387V37.9875Z" fill="#F7F7FA"/>
</svg>
