<svg width="105" height="54" viewBox="0 0 105 54" fill="none" xmlns="http://www.w3.org/2000/svg">
    <path d="M0.908691 4.18067C0.908691 1.97153 2.69955 0.180664 4.90869 0.180664H50.6789C52.888 0.180664 54.6789 1.97153 54.6789 4.18066V49.9508C54.6789 52.16 52.888 53.9508 50.6789 53.9508H4.90869C2.69955 53.9508 0.908691 52.16 0.908691 49.9508V4.18067Z" fill="#2A7FFF"/>
    <path d="M21.5906 30.2665C21.4729 32.5623 20.8254 34.3184 19.6481 35.5349C18.4806 36.7515 16.8274 37.3598 14.6887 37.3598C12.5401 37.3598 10.833 36.5455 9.56744 34.9169C8.30185 33.2785 7.66905 31.0612 7.66905 28.2651V24.38C7.66905 21.5938 8.31656 19.3912 9.61159 17.7725C10.9164 16.1537 12.6922 15.3443 14.9389 15.3443C17.0089 15.3443 18.6081 15.9673 19.7364 17.2132C20.8744 18.4494 21.4925 20.2203 21.5906 22.5258H18.8681C18.7504 20.7795 18.3825 19.5335 17.7644 18.7879C17.1463 18.0423 16.2045 17.6694 14.9389 17.6694C13.4771 17.6694 12.3537 18.2434 11.5689 19.3912C10.784 20.5293 10.3916 22.202 10.3916 24.4095V28.3387C10.3916 30.5069 10.7546 32.1698 11.4806 33.3275C12.2164 34.4852 13.2857 35.064 14.6887 35.064C16.0916 35.064 17.1022 34.7157 17.7202 34.0192C18.3383 33.3226 18.7209 32.0717 18.8681 30.2665H21.5906ZM34.7082 27.6029H27.4678V37.0654H24.7748V15.6386H35.9297V17.9638H27.4678V25.2924H34.7082V27.6029ZM48.7088 27.6029H41.4684V37.0654H38.7754V15.6386H49.9303V17.9638H41.4684V25.2924H48.7088V27.6029Z" fill="white"/>
    <path d="M61.5695 37.0654H58.8764V15.6386H61.5695V37.0654ZM79.8084 37.0654H77.1006L68.521 20.5538V37.0654H65.8132V15.6386H68.521L77.13 32.2238V15.6386H79.8084V37.0654ZM86.804 37.0654H84.111V15.6386H86.804V37.0654ZM103.13 17.9638H97.4935V37.0654H94.8004V17.9638H89.1788V15.6386H103.13V17.9638Z" fill="black"/>
</svg>
