<svg width="104" height="55" viewBox="0 0 104 55" fill="none" xmlns="http://www.w3.org/2000/svg">
    <path d="M0.269043 4.5625C0.269043 2.35336 2.0599 0.5625 4.26904 0.5625H50.0392C52.2484 0.5625 54.0392 2.35336 54.0392 4.5625V50.3327C54.0392 52.5418 52.2484 54.3327 50.0392 54.3327H4.26904C2.05991 54.3327 0.269043 52.5418 0.269043 50.3327V4.5625Z" fill="#2A7FFF"/>
    <path d="M20.951 30.6484C20.8332 32.9441 20.1857 34.7002 19.0084 35.9168C17.8409 37.1333 16.1878 37.7416 14.049 37.7416C11.9005 37.7416 10.1934 36.9273 8.9278 35.2987C7.6622 33.6603 7.0294 31.443 7.0294 28.647V24.7619C7.0294 21.9756 7.67692 19.7731 8.97194 18.1543C10.2768 16.5355 12.0525 15.7261 14.2992 15.7261C16.3693 15.7261 17.9685 16.3491 19.0967 17.5951C20.2348 18.8312 20.8528 20.6021 20.951 22.9076H18.2285C18.1107 21.1613 17.7428 19.9153 17.1247 19.1697C16.5067 18.4241 15.5648 18.0513 14.2992 18.0513C12.8374 18.0513 11.7141 18.6252 10.9292 19.7731C10.1443 20.9111 9.7519 22.5839 9.7519 24.7913V28.7205C9.7519 30.8887 10.1149 32.5517 10.8409 33.7093C11.5767 34.867 12.6461 35.4459 14.049 35.4459C15.452 35.4459 16.4625 35.0976 17.0806 34.401C17.6987 33.7044 18.0813 32.4536 18.2285 30.6484H20.951ZM34.0686 27.9847H26.8282V37.4473H24.1351V16.0204H35.29V18.3456H26.8282V25.6743H34.0686V27.9847ZM48.0692 27.9847H40.8288V37.4473H38.1357V16.0204H49.2906V18.3456H40.8288V25.6743H48.0692V27.9847Z" fill="white"/>
    <path d="M60.9298 37.4473H58.2368V16.0204H60.9298V37.4473ZM79.1687 37.4473H76.4609L67.8814 20.9357V37.4473H65.1736V16.0204H67.8814L76.4904 32.6056V16.0204H79.1687V37.4473ZM86.1644 37.4473H83.4713V16.0204H86.1644V37.4473ZM102.49 18.3456H96.8538V37.4473H94.1608V18.3456H88.5392V16.0204H102.49V18.3456Z" fill="black"/>
</svg>
