<svg width="155" height="155" viewBox="0 0 155 155" fill="none" xmlns="http://www.w3.org/2000/svg">
    <path d="M84.4088 0.424805C82.3978 0.424805 80.3999 1.1822 78.872 2.7231L36.2491 45.2415L26.7425 54.8526L23.3995 39.2869C21.3755 30.1459 11.9995 24.7136 3.0283 27.3775L0.834473 28.0043L8.5651 82.2232C7.7163 90.5806 10.5239 99.2253 16.9225 105.624L29.0408 117.742C33.9247 122.626 40.2189 125.395 46.5914 125.995L21.4147 82.1187C19.7693 79.2459 20.4875 75.6025 23.0861 73.5524L24.8621 72.1943C28.9233 68.9949 33.8072 67.2843 38.9653 67.2843C46.5522 67.2843 53.6169 71.0321 57.874 77.3132L59.9633 80.3428L60.4857 79.1936L84.0954 24.348L60.6946 47.7488L58.3963 45.4505L89.9456 13.7967C93.0144 10.728 93.0144 5.79185 89.9456 2.7231C88.4178 1.19526 86.4198 0.424805 84.4088 0.424805ZM106.66 5.23033C104.571 5.23033 102.508 6.03996 100.915 7.63309L92.2439 16.1995C93.9285 15.5335 95.7958 15.1548 97.6762 15.1548C99.6611 15.1548 101.594 15.5074 103.422 16.3039C104.871 16.9307 106.138 17.7926 107.287 18.8112C108.972 15.8599 111.623 13.6661 114.705 12.4386C114.496 10.6757 113.751 8.97812 112.406 7.63309C110.813 6.03996 108.75 5.23033 106.66 5.23033ZM120.241 18.0799C117.068 18.0538 114.065 19.882 112.72 22.9899L90.1546 75.1194L87.125 73.8658L104.885 32.8099C106.608 28.827 104.689 24.1913 100.706 22.4675C96.723 20.7438 92.1917 22.5589 90.468 26.5418L66.5448 81.8053L61.2169 94.237L52.3372 81.074C47.0876 73.3173 36.4058 71.6197 29.0408 77.4177L27.2649 78.7758L54.4265 126.309C56.7248 134.392 62.5228 141.417 70.828 145.008L86.6026 151.903C101.058 158.145 117.865 151.407 124.107 136.964L141.239 97.1621L153.984 67.8066C155.747 63.7063 153.802 58.9138 149.701 57.1509C145.601 55.388 140.913 57.2292 139.15 61.3296L126.405 90.7896L123.584 89.5359L143.642 43.1522C145.444 38.9865 143.525 34.0765 139.359 32.2875C135.193 30.4985 130.283 32.405 128.494 36.5707L108.436 83.0589L105.198 81.5964L127.659 29.4669C129.448 25.3273 127.619 20.4957 123.48 18.7067C122.448 18.2627 121.299 18.0929 120.241 18.0799Z" fill="#9DA2A7"/>
</svg>
