<?xml version="1.0" encoding="UTF-8" standalone="no"?>
<!DOCTYPE svg PUBLIC "-//W3C//DTD SVG 1.1//EN" "http://www.w3.org/Graphics/SVG/1.1/DTD/svg11.dtd">
<svg width="100%" height="100%" viewBox="0 0 310 274" version="1.1" xmlns="http://www.w3.org/2000/svg" xmlns:xlink="http://www.w3.org/1999/xlink" xml:space="preserve" xmlns:serif="http://www.serif.com/" style="fill-rule:evenodd;clip-rule:evenodd;">
    <path d="M294.736,268.207L15.173,268.207L15.102,268.209C13.355,268.259 11.627,267.836 10.1,266.986C8.574,266.136 7.305,264.89 6.427,263.379C5.549,261.868 5.095,260.148 5.113,258.401C5.131,256.653 5.62,254.943 6.529,253.45L6.559,253.4L6.589,253.35L146.541,10.824C147.397,9.341 148.629,8.11 150.112,7.253C151.595,6.397 153.277,5.946 154.99,5.946C156.703,5.946 158.385,6.397 159.868,7.253C161.351,8.109 162.582,9.34 163.439,10.823L163.439,10.824L303.391,253.35L303.451,253.45C304.36,254.943 304.849,256.653 304.867,258.401C304.885,260.148 304.431,261.868 303.553,263.379C302.675,264.89 301.406,266.136 299.88,266.986C298.353,267.836 296.625,268.259 294.878,268.209L294.736,273.207L294.736,268.207Z" style="fill:rgb(203,203,203);fill-rule:nonzero;stroke:rgb(148,148,148);stroke-width:10px;"/>
    <path d="M169.747,231.051C169.747,233.969 168.881,236.822 167.26,239.249C165.638,241.676 163.334,243.567 160.637,244.684C157.941,245.801 154.974,246.093 152.111,245.524C149.249,244.954 146.619,243.549 144.556,241.485C142.492,239.421 141.086,236.792 140.517,233.93C139.948,231.067 140.24,228.1 141.357,225.404C142.474,222.707 144.365,220.402 146.792,218.781C149.218,217.159 152.072,216.294 154.99,216.294C158.904,216.294 162.657,217.849 165.425,220.616C168.192,223.383 169.747,227.137 169.747,231.051ZM161.822,98.24L148.158,98.24C147.143,98.238 146.139,98.444 145.208,98.848C144.277,99.251 143.439,99.842 142.746,100.583C142.054,101.325 141.522,102.201 141.183,103.158C140.845,104.114 140.707,105.13 140.779,106.142L147.103,194.683C147.235,196.547 148.071,198.292 149.441,199.565C150.81,200.837 152.612,201.542 154.481,201.537L155.499,201.537C157.369,201.542 159.17,200.837 160.54,199.565C161.909,198.292 162.745,196.547 162.878,194.683L169.201,106.142C169.273,105.13 169.135,104.114 168.797,103.158C168.459,102.201 167.927,101.325 167.234,100.583C166.542,99.842 165.704,99.251 164.773,98.848C163.841,98.444 162.837,98.238 161.822,98.24Z" style="fill:rgb(148,148,148);fill-rule:nonzero;"/>
</svg>
